<?xml version="1.0" encoding="UTF-8" standalone="no"?>
<!-- Created with Inkscape (http://www.inkscape.org/) -->

<svg
   width="210mm"
   height="297mm"
   viewBox="0 0 210 297"
   version="1.1"
   id="svg993"
   inkscape:version="1.2.2 (b0a8486, 2022-12-01)"
   sodipodi:docname="logo-dark.svg"
   xmlns:inkscape="http://www.inkscape.org/namespaces/inkscape"
   xmlns:sodipodi="http://sodipodi.sourceforge.net/DTD/sodipodi-0.dtd"
   xmlns="http://www.w3.org/2000/svg"
   xmlns:svg="http://www.w3.org/2000/svg">
  <sodipodi:namedview
     id="namedview995"
     pagecolor="#ffffff"
     bordercolor="#666666"
     borderopacity="1.0"
     inkscape:showpageshadow="2"
     inkscape:pageopacity="0.0"
     inkscape:pagecheckerboard="0"
     inkscape:deskcolor="#d1d1d1"
     inkscape:document-units="mm"
     showgrid="false"
     inkscape:zoom="0.2102413"
     inkscape:cx="337.70719"
     inkscape:cy="775.29961"
     inkscape:window-width="1309"
     inkscape:window-height="456"
     inkscape:window-x="158"
     inkscape:window-y="170"
     inkscape:window-maximized="0"
     inkscape:current-layer="layer1" />
  <defs
     id="defs990">
    <clipPath
       clipPathUnits="userSpaceOnUse"
       id="clipPath236">
      <path
         d="M 0,841.89 H 1190.551 V 0 H 0 Z"
         id="path234" />
    </clipPath>
  </defs>
  <g
     inkscape:label="Layer 1"
     inkscape:groupmode="layer"
     id="layer1">
    <g
       id="g230"
       transform="matrix(0.35277777,0,0,-0.35277777,-104.28822,288.19071)">
      <g
         id="g232"
         clip-path="url(#clipPath236)">
        <g
           id="g238"
           transform="translate(515.3779,532.2479)">
          <path
             d="m 0,0 c 1.062,0.071 2.135,0.069 3.182,0.233 1.046,0.164 2.091,0.421 3.092,0.766 8.947,3.074 14.665,9.269 17.417,18.243 0.973,3.173 1.196,6.43 0.511,9.714 C 22.82,35.583 18.953,39.923 12.357,41.661 9.453,42.426 6.484,42.333 3.601,41.565 -5.371,39.178 -11.322,33.408 -14.718,24.883 -15.95,21.793 -16.397,18.562 -16.143,15.245 -15.402,5.559 -8.032,-0.109 0,0"
             style="fill:#000000;fill-opacity:1;fill-rule:nonzero;stroke:none"
             id="path240" />
        </g>
        <g
           id="g242"
           transform="translate(409.5454,389.3744)">
          <path
             d="m 0,0 c -4.074,-11.259 -8.777,-22.229 -14.936,-32.531 -1.934,-3.236 -4.043,-6.353 -6.292,-9.379 -4.771,-6.419 -10.819,-11.361 -17.699,-15.333 -3.281,-1.894 -6.771,-3.29 -10.514,-3.97 -2.769,-0.503 -5.539,-0.531 -8.277,0.228 -2.254,0.626 -4.205,1.774 -5.891,3.4 -1.301,1.253 -1.99,2.766 -2.149,4.555 -0.178,2 0.136,3.921 0.893,5.767 1.423,3.469 3.517,6.462 6.406,8.873 3.334,2.783 6.759,5.436 10.454,7.742 15.078,9.408 29.844,19.287 44.324,29.593 1.265,0.901 2.557,1.766 3.836,2.648 L 0.167,1.565 C 0.399,1.032 0.187,0.517 0,0 m 44.285,34.952 c 7.251,6.279 14.158,12.914 20.703,19.929 2.122,2.275 4.345,4.456 6.526,6.678 0.171,0.174 0.354,0.34 0.545,0.494 0.257,0.208 0.672,0.04 0.743,-0.31 0.081,-0.4 0.129,-0.806 0.196,-1.209 1.18,-7.141 3.676,-13.747 8.084,-19.545 4.337,-5.704 9.822,-9.829 16.792,-11.764 5.898,-1.638 11.831,-1.428 17.726,0.04 5.957,1.482 11.303,4.298 16.318,7.766 8.246,5.701 15.097,12.794 20.813,21.006 0.512,0.734 1.035,1.462 1.547,2.185 0.837,-0.399 0.926,-1.212 1.25,-1.844 1.93,-3.763 4.472,-7.041 7.629,-9.848 3.723,-3.308 7.964,-5.732 12.673,-7.322 9.442,-3.188 18.994,-3.203 28.545,-0.645 11.006,2.948 20.411,8.729 28.52,16.665 5.681,5.558 10.277,11.898 13.347,19.255 2.783,6.669 4.328,13.565 3.197,20.849 -1.16,7.473 -4.318,13.9 -10.203,18.772 -5.522,4.57 -11.865,6.461 -19.013,5.237 -3.019,-0.517 -5.821,-1.635 -8.398,-3.299 -0.269,-0.172 -0.594,-0.334 -0.581,-0.723 0.012,-0.411 0.376,-0.503 0.666,-0.589 2.873,-0.85 4.702,-2.886 6.07,-5.401 0.584,-1.073 1.082,-2.207 1.489,-3.36 1.701,-4.817 1.894,-9.778 1.212,-14.789 -0.388,-2.852 -1.025,-5.686 -2.512,-8.169 -3.102,-5.181 -6.995,-9.687 -12.032,-13.111 -1.495,-1.016 -3.093,-1.848 -4.837,-2.361 -5.29,-1.557 -10.193,0.193 -12.097,6.387 -0.733,2.383 -0.908,4.827 -0.5,7.29 0.24,1.452 0.543,2.897 0.87,4.333 6.695,29.447 13.396,58.891 20.108,88.334 0.178,0.78 0.221,1.625 0.827,2.322 0.633,-0.124 1.274,-0.234 1.908,-0.378 5.959,-1.362 11.959,-1.76 18.05,-1.015 6.93,0.848 13.418,2.937 19.359,6.61 8.257,5.107 13.965,12.273 16.995,21.509 1.648,5.027 1.891,10.137 0.318,15.228 -2.484,8.04 -8.135,13.032 -15.75,16.073 -0.075,0.03 -0.157,0.046 -0.237,0.061 -0.482,0.094 -0.811,-0.148 -0.958,-0.558 -0.136,-0.378 -0.183,-0.795 -0.223,-1.2 -0.328,-3.265 -1.598,-6.156 -3.487,-8.8 -2.077,-2.909 -4.717,-5.213 -7.717,-7.119 -4.197,-2.667 -8.783,-4.348 -13.637,-5.346 -2.009,-0.414 -4.045,-0.624 -6.087,-0.77 -0.644,-0.045 -0.906,0.258 -0.791,0.885 0.133,0.725 0.298,1.443 0.462,2.161 3.103,13.647 6.208,27.293 9.309,40.941 0.108,0.476 0.203,0.96 0.248,1.445 0.008,0.079 -0.004,0.149 -0.02,0.216 l -44.238,-3.494 c -0.062,-0.11 -0.115,-0.232 -0.152,-0.379 -0.08,-0.317 -0.173,-0.631 -0.247,-0.95 -1.652,-7.178 -3.303,-14.356 -4.952,-21.534 -0.714,-3.111 -1.382,-6.233 -2.146,-9.332 -0.687,-2.787 -0.246,-2.366 -3.043,-1.748 -1.516,0.335 -3.007,0.786 -4.513,1.169 -10.068,2.563 -20.085,5.318 -30.278,7.386 -7.521,1.526 -15.034,2.31 -22.685,1.245 -7.912,-1.101 -15.277,-3.658 -21.846,-8.239 -10.075,-7.026 -16.139,-16.531 -17.492,-28.87 -0.251,-2.29 -0.252,-4.577 -0.061,-6.867 0.027,-0.323 0.157,-0.675 0.551,-0.676 0.211,0 0.488,0.132 0.623,0.296 2.361,2.884 5.174,5.234 8.366,7.144 3.035,1.817 6.266,3.184 9.631,4.259 7.811,2.494 15.866,3.242 24.002,3.21 5.816,-0.023 11.618,-0.504 17.373,-1.381 8.263,-1.259 16.397,-3.107 24.381,-5.589 2.266,-0.704 4.518,-1.449 6.766,-2.21 0.861,-0.292 0.947,-0.524 0.754,-1.484 -0.128,-0.642 -0.27,-1.281 -0.417,-1.919 -1.234,-5.342 -2.475,-10.684 -3.707,-16.026 -6.691,-29.028 -13.389,-58.054 -20.065,-87.085 -1.422,-6.183 -4.268,-11.653 -8.147,-16.616 -1.52,-1.945 -3.295,-3.646 -5.383,-4.989 -1.105,-0.711 -2.271,-1.281 -3.558,-1.617 -3.94,-1.03 -8.47,1.648 -10.013,4.63 -0.919,1.776 -1.408,3.65 -1.52,5.643 -0.141,2.491 0.416,4.875 0.963,7.275 3.866,16.966 7.71,33.936 11.558,50.905 l -44.21,-3.492 c -0.013,-0.053 -0.03,-0.1 -0.042,-0.156 -0.097,-0.482 -0.203,-0.961 -0.301,-1.442 -1.226,-6.043 -3.018,-11.901 -5.83,-17.408 -1.339,-2.623 -2.689,-5.248 -4.19,-7.781 -6.298,-10.63 -14.1,-20.092 -22.657,-28.961 -0.219,-0.227 -0.492,-0.402 -1.219,-0.987 0.626,2.896 1.127,5.29 1.661,7.676 5.465,24.439 10.936,48.876 16.401,73.315 0.11,0.492 0.197,0.991 0.249,1.491 L 33.63,149.796 c -0.107,-0.208 -0.189,-0.449 -0.242,-0.738 -0.058,-0.32 -0.176,-0.63 -0.279,-0.941 C 28.331,133.629 21.598,120.128 12.664,107.745 8.434,101.882 3.737,96.43 -1.686,91.629 c -2.89,-2.557 -5.956,-4.872 -9.337,-6.753 -2.592,-1.441 -5.293,-2.629 -8.219,-3.146 -6.444,-1.138 -11.384,0.91 -14.695,6.758 -0.851,1.504 -1.468,3.107 -1.951,4.762 -1.254,4.289 -1.62,8.694 -1.506,13.126 0.158,6.157 1.056,12.228 2.51,18.214 4.226,17.382 11.586,33.353 21.703,48.074 4.423,6.435 9.388,12.416 15.212,17.643 3.731,3.347 7.726,6.327 12.29,8.479 1.936,0.913 3.937,1.648 6.042,2 6.25,1.045 11.105,-0.951 14.361,-6.522 1.083,-1.853 1.829,-3.843 2.353,-5.914 0.563,-2.225 0.938,-4.483 1.09,-6.779 0.025,-0.363 0.062,-0.613 0.138,-0.795 l 18.256,1.442 c -0.481,5.468 -1.317,10.875 -2.913,16.142 -1.795,5.925 -4.333,11.491 -8.199,16.374 -7.54,9.525 -17.521,13.632 -29.517,13.103 -3.856,-0.17 -7.628,-0.954 -11.329,-2.055 -7.363,-2.189 -14.114,-5.651 -20.493,-9.877 -7.546,-5 -14.324,-10.912 -20.587,-17.428 -10.968,-11.412 -20.068,-24.193 -27.579,-38.095 -11.847,-21.927 -19.771,-45.082 -21.478,-70.124 -0.655,-9.622 -0.05,-19.154 2.336,-28.523 1.505,-5.909 3.78,-11.512 7.274,-16.553 7.174,-10.348 17.075,-15.456 29.667,-15.251 6.553,0.106 12.783,1.752 18.818,4.219 8.646,3.535 16.355,8.594 23.543,14.496 7.114,5.843 13.484,12.427 19.367,19.495 0.506,0.608 0.876,1.375 1.755,1.768 0.05,-0.327 0.143,-0.554 0.108,-0.758 -0.359,-2.097 -0.73,-4.193 -1.113,-6.286 C 14.955,55.94 13.561,49.042 12.025,42.173 11.775,41.058 11.763,39.828 11.255,38.851 10.694,37.771 9.41,37.279 8.407,36.583 6.523,35.275 4.621,33.996 2.698,32.747 -3,29.044 -8.694,25.333 -14.423,21.678 -31.818,10.58 -49.287,-0.401 -66.505,-11.772 c -4.099,-2.707 -8.167,-5.463 -12.196,-8.275 -3.696,-2.578 -7.22,-5.387 -10.534,-8.448 -6.696,-6.186 -11.463,-13.619 -14.373,-22.251 -1.622,-4.812 -2.191,-9.712 -1.397,-14.764 1.196,-7.605 4.559,-13.938 10.721,-18.685 2.544,-1.96 5.292,-3.561 8.224,-4.862 7.07,-3.138 14.537,-4.432 22.202,-4.694 9.42,-0.32 18.578,1.249 27.592,3.918 8.019,2.374 15.355,6.057 22.088,10.986 3.708,2.716 7.184,5.701 10.456,8.926 6.504,6.41 12.114,13.546 17.074,21.198 8.512,13.134 14.921,27.264 19.834,42.093 4.076,12.305 7.057,24.871 8.937,37.698 0.338,2.309 0.348,2.313 2.162,3.884"
             style="fill:#000000;fill-opacity:1;fill-rule:nonzero;stroke:none"
             id="path244" />
        </g>
        <g
           id="g246"
           transform="translate(718.1211,334.8597)">
          <path
             d="m 0,0 c 2.877,-1.115 5.892,-1.352 8.932,-0.832 7.255,1.241 12.801,5.154 16.955,11.107 2.869,4.115 4.522,8.675 4.539,14.048 -0.024,0.524 -0.019,1.345 -0.103,2.156 -0.647,6.272 -4.531,12.067 -11.574,14.024 -3.243,0.901 -6.498,0.844 -9.684,-0.094 C -0.483,37.6 -6.548,31.229 -9.458,21.811 -10.409,18.733 -10.623,15.555 -10.006,12.352 -8.868,6.449 -5.67,2.198 0,0"
             style="fill:#000000;fill-opacity:1;fill-rule:nonzero;stroke:none"
             id="path248" />
        </g>
        <g
           id="g250"
           transform="translate(885.6475,409.9506)">
          <path
             d="m 0,0 c -1.355,5.566 -4.469,9.947 -9.005,13.37 -2.039,1.538 -4.269,2.74 -6.639,3.68 -1.136,0.451 -1.502,0.239 -1.717,-0.896 -0.092,-0.483 -0.166,-0.969 -0.237,-1.455 -0.393,-2.729 -1.477,-5.18 -3.003,-7.452 -1.616,-2.405 -3.627,-4.44 -5.947,-6.157 -6.089,-4.507 -12.998,-6.812 -20.489,-7.482 -2.224,-0.199 -2.426,-0.22 -1.876,2.171 3.138,13.638 6.227,27.287 9.329,40.933 0.181,0.796 0.333,1.599 0.465,2.404 0.009,0.055 -10e-4,0.106 -0.013,0.155 L -83.449,35.77 c -0.181,-0.358 -0.267,-0.994 -0.541,-2.16 -2.378,-10.118 -4.676,-20.254 -7.001,-30.384 -0.146,-0.634 -0.2,-1.296 -0.834,-2.047 -2.093,0.529 -4.155,1.045 -6.214,1.572 -10.857,2.784 -21.665,5.751 -32.681,7.89 -7.14,1.386 -14.276,1.808 -21.489,0.742 -6.807,-1.007 -13.209,-3.161 -19.056,-6.802 -10.567,-6.58 -17.294,-15.831 -19.292,-28.268 -0.469,-2.922 -0.486,-5.874 -0.24,-8.822 0.018,-0.212 0.146,-0.474 0.31,-0.603 0.341,-0.268 0.609,0.005 0.815,0.253 1.207,1.452 2.51,2.807 3.96,4.02 3.626,3.034 7.748,5.165 12.174,6.758 6.85,2.466 13.969,3.43 21.192,3.775 7.723,0.371 15.39,-0.323 23.01,-1.478 9.567,-1.452 18.915,-3.854 28.096,-6.906 0.775,-0.258 1.538,-0.559 2.309,-0.831 0.459,-0.161 0.629,-0.509 0.578,-0.949 -0.057,-0.485 -0.168,-0.967 -0.277,-1.444 -1.772,-7.738 -3.54,-15.478 -5.324,-23.213 -6.144,-26.636 -12.328,-53.261 -18.408,-79.91 -1.241,-5.441 -3.464,-10.383 -6.505,-14.998 -1.539,-2.334 -3.344,-4.452 -5.52,-6.233 -1.273,-1.042 -2.63,-1.947 -4.18,-2.535 -3.521,-1.336 -7.4,-0.288 -9.738,2.651 -0.769,0.968 -1.338,2.049 -1.776,3.21 -1.014,2.675 -1.171,5.434 -0.75,8.225 0.257,1.697 0.633,3.379 1.013,5.055 3.715,16.391 7.444,32.778 11.167,49.167 l -44.161,-3.488 c -0.143,-0.503 -0.287,-1.218 -0.567,-2.271 -0.02,-0.079 -0.026,-0.162 -0.045,-0.241 -2.707,-11.555 -5.419,-23.109 -8.12,-34.664 -1.117,-4.78 -2.237,-9.561 -3.312,-14.351 -1.008,-4.49 -2.299,-8.875 -4.493,-12.949 -1.091,-2.027 -2.367,-3.927 -3.986,-5.578 -1.274,-1.299 -2.686,-2.432 -4.413,-3.046 -4.789,-1.703 -8.362,-0.178 -10.439,4.104 -1.217,2.511 -1.418,5.166 -0.814,7.908 2.856,12.947 5.695,25.898 8.524,38.851 4.052,18.55 8.085,37.104 12.136,55.655 0.681,3.116 1.554,6.198 2.085,9.338 1.309,7.747 1.179,15.496 -0.421,23.198 -1.213,5.836 -3.363,11.289 -6.859,16.157 -4.36,6.072 -10.066,10.248 -17.372,12.067 -6.021,1.499 -12.014,1.154 -17.964,-0.478 -7.067,-1.939 -13.272,-5.513 -18.979,-10.022 -5.304,-4.189 -9.806,-9.159 -14.006,-14.423 -0.556,-0.697 -0.979,-1.517 -1.752,-2.033 -0.719,0.416 -0.828,1.205 -1.147,1.843 -1.433,2.873 -3.133,5.567 -5.255,7.98 -5.011,5.695 -11.236,9.122 -18.789,10.178 -5.22,0.73 -10.291,0.097 -15.29,-1.355 -6.784,-1.972 -12.761,-5.474 -18.264,-9.835 -5.426,-4.301 -10.022,-9.405 -14.302,-14.818 -0.497,-0.628 -0.83,-1.426 -1.737,-1.835 -0.376,0.716 -0.756,1.424 -1.122,2.14 -1.802,3.528 -4.05,6.734 -6.921,9.481 -4.964,4.749 -10.865,7.54 -17.703,8.211 -5.28,0.518 -10.448,-0.125 -15.504,-1.782 -6.389,-2.093 -12.134,-5.36 -17.282,-9.621 -10.966,-9.074 -19.392,-20.125 -25.255,-33.107 -1.485,-3.288 -2.638,-6.694 -3.535,-10.194 -0.26,-1.016 -0.145,-1.682 0.699,-2.338 1.811,-1.407 3.565,-2.886 5.332,-4.348 1.629,-1.349 1.891,-1.581 2.608,0.828 2.196,7.374 5.642,14.126 10.5,20.121 2.437,3.009 5.191,5.682 8.484,7.76 1.813,1.144 3.736,2.037 5.834,2.514 4.253,0.969 8.047,-0.537 10.463,-4.164 0.914,-1.373 1.566,-2.869 2.005,-4.461 1.407,-5.086 1.353,-10.217 0.251,-15.323 -2.089,-9.679 -4.29,-19.335 -6.44,-29.002 -3.536,-15.898 -7.068,-31.797 -10.603,-47.695 -3.516,-15.818 -7.031,-31.638 -10.55,-47.456 -1.82,-8.181 -3.646,-16.36 -5.456,-24.544 l 45.301,3.578 c 0.277,1.331 0.552,2.661 0.842,3.989 5.011,22.948 10.03,45.894 15.037,68.842 5.059,23.189 10.09,46.384 15.175,69.567 0.86,3.922 1.683,7.83 1.837,11.863 0.1,2.626 0.064,5.239 -0.125,7.854 -0.061,0.834 -0.024,1.595 0.508,2.323 2.973,4.066 6.334,7.727 10.668,10.389 1.895,1.165 3.897,2.058 6.119,2.432 4.148,0.7 7.394,-0.698 9.798,-4.108 1.098,-1.557 1.803,-3.304 2.263,-5.142 1.175,-4.689 1.194,-9.409 0.211,-14.124 -0.901,-4.326 -1.883,-8.635 -2.842,-12.949 -4.352,-19.574 -8.709,-39.145 -13.062,-58.718 -3.873,-17.416 -7.748,-34.831 -11.615,-52.248 -2.05,-9.236 -4.06,-18.48 -6.15,-27.705 l 45.214,3.572 c 0.082,0.21 0.159,0.487 0.263,0.881 0.062,0.237 0.136,0.473 0.188,0.712 1.684,7.758 3.358,15.518 5.048,23.275 3.851,17.672 7.711,35.343 11.565,53.015 3.173,14.553 6.345,29.107 9.513,43.661 1.828,8.397 3.557,16.816 5.512,25.184 0.976,4.182 1.449,8.377 1.426,12.647 -0.008,1.638 -0.038,3.276 -0.096,4.913 -0.028,0.761 0.076,1.431 0.549,2.074 2.929,3.996 6.257,7.577 10.5,10.217 1.676,1.044 3.459,1.851 5.389,2.318 4.472,1.085 8.358,-0.457 10.827,-4.321 1.163,-1.818 1.888,-3.814 2.289,-5.92 0.885,-4.644 0.806,-9.28 -0.225,-13.898 -2.033,-9.106 -4.067,-18.212 -6.092,-27.319 -5.046,-22.689 -10.076,-45.381 -15.137,-68.067 -1.551,-6.96 -1.839,-13.952 -0.632,-20.978 1.21,-7.052 3.777,-13.563 8.244,-19.21 8.399,-10.618 19.379,-14.277 32.527,-11.767 5.454,1.042 10.41,3.384 15.114,6.271 4.981,3.055 9.495,6.708 13.616,10.841 1.502,1.507 2.913,3.107 4.373,4.658 0.717,0.762 0.928,0.776 1.514,-0.035 2.029,-2.804 4.343,-5.33 7.082,-7.458 4.296,-3.336 9.11,-5.539 14.521,-6.137 6.963,-0.771 13.707,0.168 20.15,3.071 5.645,2.543 10.762,5.891 15.491,9.856 5.937,4.98 11.048,10.706 15.441,17.084 0.438,0.636 0.691,1.487 1.602,1.755 0.188,-0.329 0.368,-0.602 0.509,-0.895 4.359,-9.075 11.542,-14.949 20.95,-18.131 9.772,-3.306 19.677,-3.161 29.492,-0.247 13.275,3.942 24.102,11.604 32.752,22.36 4.297,5.344 7.586,11.252 9.618,17.838 1.792,5.809 2.442,11.691 1.263,17.696 -1.3,6.628 -4.251,12.388 -9.395,16.843 -5.851,5.067 -12.609,7.131 -20.301,5.565 -2.831,-0.578 -5.479,-1.657 -7.866,-3.313 -0.503,-0.348 -0.443,-0.912 0.139,-1.086 3.336,-0.999 5.274,-3.462 6.719,-6.414 0.501,-1.024 0.909,-2.106 1.243,-3.198 1.587,-5.199 1.757,-10.464 0.633,-15.777 -0.561,-2.66 -1.33,-5.242 -2.848,-7.534 -1.997,-3.012 -4.239,-5.827 -6.86,-8.327 -1.604,-1.53 -3.318,-2.921 -5.209,-4.089 -1.471,-0.909 -3.013,-1.67 -4.696,-2.08 -4.819,-1.176 -8.192,0.538 -10.117,4.681 -0.344,0.738 -0.655,1.51 -0.847,2.299 -0.881,3.629 -1.056,7.296 -0.228,10.95 4.248,18.759 8.525,37.51 12.792,56.264 2.487,10.932 4.975,21.865 7.466,32.796 0.11,0.476 0.214,0.96 0.4,1.408 0.074,0.177 0.368,0.378 0.555,0.371 0.401,-0.014 0.796,-0.157 1.194,-0.246 5.711,-1.281 11.461,-1.794 17.316,-1.214 7.373,0.73 14.271,2.848 20.573,6.758 8.486,5.261 14.269,12.66 17.187,22.226 C 0.927,-8.95 1.093,-4.486 0,0"
             style="fill:#000000;fill-opacity:1;fill-rule:nonzero;stroke:none"
             id="path252" />
        </g>
        <g
           id="g254"
           transform="translate(688.3037,542.3529)">
          <path
             d="M 0,0 49.766,3.963 44.341,-20.283 -5.708,-24.176 Z"
             style="fill:#000000;fill-opacity:1;fill-rule:nonzero;stroke:none"
             id="path256" />
        </g>
      </g>
    </g>
  </g>
</svg>
